<!-- Generated by IcoMoon.io -->
<svg version="1.1" xmlns="http://www.w3.org/2000/svg" fill="#fff" width="512" height="512" viewBox="0 0 512 512">
<title></title>
<g id="icomoon-ignore">
</g>
<path d="M0 256c0 139.374 111.381 252.729 249.987 255.924-120.932-2.96-217.987-94.916-217.987-207.924 0-114.875 100.288-208 224-208 26.51 0 48-21.49 48-48s-21.49-48-48-48c-141.385 0-256 114.615-256 256zM512 256c0-139.374-111.381-252.729-249.987-255.924 120.932 2.96 217.987 94.916 217.987 207.924 0 114.875-100.288 208-224 208-26.51 0-48 21.49-48 48s21.49 48 48 48c141.385 0 256-114.615 256-256z"></path>
</svg>
